<svg xmlns="http://www.w3.org/2000/svg" viewBox="0 0 24 24" fill="currentColor"><path d="M12 2C6.48 2 2 6.48 2 12C2 17.52 6.48 22 12 22C17.52 22 22 17.52 22 12C22 6.48 17.52 2 12 2ZM12 20C7.59 20 4 16.41 4 12C4 7.59 7.59 4 12 4C16.41 4 20 7.59 20 12C20 16.41 16.41 20 12 20ZM11.89 10.54C10.9 9.84 9.53 10.13 8.96 11.18C8.39 12.23 8.79 13.53 9.87 14C10.95 14.47 12.17 13.94 12.58 12.83C12.99 11.72 12.88 11.24 11.89 10.54ZM15.04 11.18C14.47 10.13 13.1 9.84 12.11 10.54C11.12 11.24 11.01 11.72 11.42 12.83C11.83 13.94 13.05 14.47 14.13 14C15.21 13.53 15.61 12.23 15.04 11.18ZM12 17.5C9.67 17.5 7.69 16.04 6.89 14H17.11C16.31 16.04 14.33 17.5 12 17.5Z"/></svg>
