<svg xmlns="http://www.w3.org/2000/svg" viewBox="0 0 24 24" fill="currentColor"><path d="M18.3362 18.339H15.6707V14.1622C15.6707 13.1662 15.6505 11.8845 14.2817 11.8845C12.892 11.8845 12.6797 12.9683 12.6797 14.0887V18.339H10.0142V9.75H12.5747V10.9207H12.6092C12.967 10.2457 13.837 9.53325 15.1367 9.53325C17.8375 9.53325 18.337 11.3108 18.337 13.6245L18.3362 18.339ZM7.00325 8.57475C6.14575 8.57475 5.45575 7.88025 5.45575 7.026C5.45575 6.1725 6.14625 5.47875 7.00325 5.47875C7.858 5.47875 8.55075 6.1725 8.55075 7.026C8.55075 7.88025 7.8575 8.57475 7.00325 8.57475ZM8.34025 18.339H5.66625V9.75H8.34025V18.339ZM19.6697 3H4.32925C3.5945 3 3 3.5805 3 4.29675V19.7033C3 20.4202 3.5945 21 4.32925 21H19.6675C20.401 21 21 20.4202 21 19.7033V4.29675C21 3.5805 20.401 3 19.6675 3H19.6697Z"/></svg>
